# xmcd
#
# Track frame offsets:
#  150
#  13981
#  20816
#  39743
#  49691
#  65922
#  86253
#  109590
#  126114
#  152066
#  171010
#  178283
#  187153
#  233742
#  250224
#  266710
#  271735
#  295618
#  306000
#
# Disc length: 4391 seconds
#
# Revision: 0
# Processed by: cddbd v1.5.1PL2 Copyright (c) Steve Scherf et al.
# Submitted via: Collectorz.com_Music_Collector 6.9
#
DISCID=10112513
DTITLE=Bruce Springsteen - Cool Rockin' Daddy In The Usa - Born In The Usa Tour Compilation - Disc 3
DYEAR=1985
DGENRE=
TTITLE0=I'm Bad, I'm Nationwide
TTITLE1=Intro To I'm Going Down
TTITLE2=I'm Going Down
TTITLE3=Intro To I'm On Fire
TTITLE4=I'm On Fire
TTITLE5=Independence Day (Acoustic)
TTITLE6=Independence Day (Full Band)
TTITLE7=Janey Don't You Lose Heart
TTITLE8=Jersey Girl
TTITLE9=Johnny 99
TTITLE10=Intro To Johnny Bye Bye
TTITLE11=Johnny Bye Bye
TTITLE12=Jungleland
TTITLE13=Man At The Top
TTITLE14=Mansion On The Hill
TTITLE15=Intro To My Fathers House
TTITLE16=My Fathers House
TTITLE17=Intro To My Hometown
TTITLE18=My Hometown
EXTD=
EXTT0=
EXTT1=
EXTT2=
EXTT3=
EXTT4=
EXTT5=
EXTT6=
EXTT7=
EXTT8=
EXTT9=
EXTT10=
EXTT11=
EXTT12=
EXTT13=
EXTT14=
EXTT15=
EXTT16=
EXTT17=
EXTT18=
PLAYORDER=
